<?xml version="1.0" encoding="UTF-8" standalone="no"?>
<!-- Created with Inkscape (http://www.inkscape.org/) -->

<svg
   width="210mm"
   height="297mm"
   viewBox="0 0 210 297"
   version="1.1"
   id="svg1"
   xml:space="preserve"
   inkscape:version="1.3 (0e150ed6c4, 2023-07-21)"
   sodipodi:docname="mouse.svg"
   xmlns:inkscape="http://www.inkscape.org/namespaces/inkscape"
   xmlns:sodipodi="http://sodipodi.sourceforge.net/DTD/sodipodi-0.dtd"
   xmlns="http://www.w3.org/2000/svg"
   xmlns:svg="http://www.w3.org/2000/svg"><sodipodi:namedview
     id="namedview1"
     pagecolor="#505050"
     bordercolor="#eeeeee"
     borderopacity="1"
     inkscape:showpageshadow="0"
     inkscape:pageopacity="0"
     inkscape:pagecheckerboard="0"
     inkscape:deskcolor="#d1d1d1"
     inkscape:document-units="mm"
     inkscape:zoom="1.122532"
     inkscape:cx="1165.6683"
     inkscape:cy="379.94463"
     inkscape:window-width="1920"
     inkscape:window-height="1129"
     inkscape:window-x="-8"
     inkscape:window-y="-8"
     inkscape:window-maximized="1"
     inkscape:current-layer="layer1" /><defs
     id="defs1" /><g
     inkscape:label="Layer 1"
     inkscape:groupmode="layer"
     id="layer1"><rect
       style="fill:#ff0000;fill-opacity:0;stroke-width:15;stroke-linecap:round;stroke-linejoin:round;stroke-dasharray:none;paint-order:markers fill stroke"
       id="rect14"
       width="100"
       height="100"
       x="80.105164"
       y="85.67292"
       inkscape:export-filename="logo.png"
       inkscape:export-xdpi="98.2"
       inkscape:export-ydpi="98.2" /><path
       id="path1"
       style="fill:#e6e6e6;fill-opacity:1;stroke-width:0.223398;stroke-linecap:round;stroke-linejoin:bevel;paint-order:markers fill stroke"
       d="M 109.86429,98.316137 A 16.197665,15.459009 0 0 0 93.66671,113.7751 16.197665,15.459009 0 0 0 109.86429,129.23407 16.197665,15.459009 0 0 0 126.06202,113.7751 16.197665,15.459009 0 0 0 109.86429,98.316137 Z m 0,8.660963 a 7.1227517,6.7979358 0 0 1 7.12288,6.798 7.1227517,6.7979358 0 0 1 -7.12288,6.79784 7.1227517,6.7979358 0 0 1 -7.12273,-6.79784 7.1227517,6.7979358 0 0 1 7.12273,-6.798 z" /><path
       id="path1-6"
       style="fill:#e6e6e6;fill-opacity:1;stroke-width:0.223398;stroke-linecap:round;stroke-linejoin:bevel;paint-order:markers fill stroke"
       d="m 150.34604,98.30485 a 16.197665,15.459009 0 0 0 -16.19774,15.45897 16.197665,15.459009 0 0 0 16.19774,15.45912 16.197665,15.459009 0 0 0 16.19757,-15.45912 16.197665,15.459009 0 0 0 -16.19757,-15.45897 z m 0,8.66113 a 7.1227517,6.7979352 0 0 1 7.12272,6.79784 7.1227517,6.7979352 0 0 1 -7.12272,6.79799 7.1227517,6.7979352 0 0 1 -7.12273,-6.79799 7.1227517,6.7979352 0 0 1 7.12273,-6.79784 z" /><path
       id="path1-6-5"
       style="fill:#e6e6e6;fill-opacity:1;stroke-width:0.357312;stroke-linecap:round;stroke-linejoin:bevel;paint-order:markers fill stroke"
       d="m 130.38716,114.0983 a 24.379421,26.275039 0 0 0 -24.37939,26.27491 24.379421,26.275039 0 0 0 24.37939,26.27507 24.379421,26.275039 0 0 0 24.37938,-26.27507 24.379421,26.275039 0 0 0 -24.37938,-26.27491 z m -10.16567,17.24963 a 4.1784679,4.1784679 0 0 1 4.17858,4.17859 4.1784679,4.1784679 0 0 1 -4.17858,4.17842 4.1784679,4.1784679 0 0 1 -4.17843,-4.17842 4.1784679,4.1784679 0 0 1 4.17843,-4.17859 z m 19.99696,0 a 4.1784679,4.1784679 0 0 1 4.17842,4.17859 4.1784679,4.1784679 0 0 1 -4.17842,4.17842 4.1784679,4.1784679 0 0 1 -4.17843,-4.17842 4.1784679,4.1784679 0 0 1 4.17843,-4.17859 z" /><ellipse
       style="fill:#e6e6e6;fill-opacity:1;stroke-width:0.0661026;stroke-linecap:round;stroke-linejoin:bevel;paint-order:markers fill stroke"
       id="path1-6-5-6"
       cx="130.38712"
       cy="168.31886"
       rx="4.6427054"
       ry="4.7221203" /><path
       style="color:#000000;fill:#e6e6e6;fill-opacity:1;stroke-width:0.316567;stroke-linecap:round;stroke-linejoin:round;-inkscape-stroke:none"
       d="m 103.9345,150.33155 a 1.1871253,1.1871253 0 0 0 -1.18712,1.18713 1.1871253,1.1871253 0 0 0 1.18712,1.18713 h 51.78278 a 1.1871253,1.1871253 0 0 0 1.18712,-1.18713 1.1871253,1.1871253 0 0 0 -1.18712,-1.18713 z"
       id="path8" /><path
       style="color:#000000;fill:#e6e6e6;fill-opacity:1;stroke-width:0.316567;stroke-linecap:round;stroke-linejoin:round;-inkscape-stroke:none"
       d="m 107.26402,155.13323 a 1.1081688,1.1081688 0 0 0 -1.1086,1.10798 1.1081688,1.1081688 0 0 0 1.1086,1.10799 h 45.12375 a 1.1081688,1.1081688 0 0 0 1.10798,-1.10799 1.1081688,1.1081688 0 0 0 -1.10798,-1.10798 z"
       id="path9" /><path
       style="color:#000000;fill:#e6e6e6;fill-opacity:1;stroke-width:0.336837;stroke-linecap:round;stroke-linejoin:round;-inkscape-stroke:none"
       d="m 111.7072,159.8626 a 1.0566637,0.93331473 0 0 0 -1.05702,0.93301 1.0566637,0.93331473 0 0 0 1.05702,0.93362 h 36.23739 a 1.0566637,0.93331473 0 0 0 1.05702,-0.93362 1.0566637,0.93331473 0 0 0 -1.05702,-0.93301 z"
       id="path10" /><rect
       style="fill:#ff0000;fill-opacity:0;stroke-width:15;stroke-linecap:round;stroke-linejoin:round;stroke-dasharray:none;paint-order:markers fill stroke"
       id="rect14-4"
       width="100"
       height="100"
       x="202.57364"
       y="75.305504"
       inkscape:export-filename="logo.png"
       inkscape:export-xdpi="98.2"
       inkscape:export-ydpi="98.2" /><path
       id="path1-8"
       style="fill:#e6e6e6;fill-opacity:1;stroke-width:0.223398;stroke-linecap:round;stroke-linejoin:bevel;paint-order:markers fill stroke"
       d="m 232.33277,87.94872 a 16.197665,15.459009 0 0 0 -16.19758,15.45896 16.197665,15.459009 0 0 0 16.19758,15.45897 16.197665,15.459009 0 0 0 16.19773,-15.45897 16.197665,15.459009 0 0 0 -16.19773,-15.45896 z m 0,8.660963 a 7.1227517,6.7979358 0 0 1 7.12288,6.797997 7.1227517,6.7979358 0 0 1 -7.12288,6.79784 7.1227517,6.7979358 0 0 1 -7.12273,-6.79784 7.1227517,6.7979358 0 0 1 7.12273,-6.797997 z" /><path
       id="path1-6-3"
       style="fill:#e6e6e6;fill-opacity:1;stroke-width:0.223398;stroke-linecap:round;stroke-linejoin:bevel;paint-order:markers fill stroke"
       d="m 272.81452,87.937433 a 16.197665,15.459009 0 0 0 -16.19774,15.458967 16.197665,15.459009 0 0 0 16.19774,15.45912 16.197665,15.459009 0 0 0 16.19757,-15.45912 16.197665,15.459009 0 0 0 -16.19757,-15.458967 z m 0,8.66113 a 7.1227517,6.7979352 0 0 1 7.12272,6.797837 7.1227517,6.7979352 0 0 1 -7.12272,6.79799 7.1227517,6.7979352 0 0 1 -7.12273,-6.79799 7.1227517,6.7979352 0 0 1 7.12273,-6.797837 z" /><path
       id="path1-6-5-60"
       style="fill:#e6e6e6;fill-opacity:1;stroke-width:0.357312;stroke-linecap:round;stroke-linejoin:bevel;paint-order:markers fill stroke"
       d="m 252.85564,103.73088 a 24.379421,26.275039 0 0 0 -24.37939,26.27491 24.379421,26.275039 0 0 0 24.37939,26.27507 24.379421,26.275039 0 0 0 24.37938,-26.27507 24.379421,26.275039 0 0 0 -24.37938,-26.27491 z m -10.16567,17.24963 a 4.1784679,4.1784679 0 0 1 4.17858,4.17859 4.1784679,4.1784679 0 0 1 -4.17858,4.17842 4.1784679,4.1784679 0 0 1 -4.17843,-4.17842 4.1784679,4.1784679 0 0 1 4.17843,-4.17859 z m 19.99696,0 a 4.1784679,4.1784679 0 0 1 4.17842,4.17859 4.1784679,4.1784679 0 0 1 -4.17842,4.17842 4.1784679,4.1784679 0 0 1 -4.17843,-4.17842 4.1784679,4.1784679 0 0 1 4.17843,-4.17859 z" /><ellipse
       style="fill:#e6e6e6;fill-opacity:1;stroke-width:0.0661026;stroke-linecap:round;stroke-linejoin:bevel;paint-order:markers fill stroke"
       id="path1-6-5-6-9"
       cx="252.85558"
       cy="157.95145"
       rx="4.6427054"
       ry="4.7221203" /></g></svg>
